# xmcd
#
# Track frame offsets:
#	150
#	16877
#	30954
#	43407
#	60826
#	76974
#	90337
#	103832
#	120742
#	132066
#	147731
#	164294
#	179841
#	199709
#	211847
#
# Disc length: 2924 seconds
# Revision: 0
# Processed by: cddbd v1.5.2PL0 Copyright (c) Steve Scherf et al.
# Submitted via: dBpowerAMP V12.0
#
DISCID=c80b6a0f
DTITLE=Shannon Slaughter - Never Standing Still
DYEAR=2017
DGENRE=
TTITLE0=You Can?t Outrun the River
TTITLE1=Find Your Own Highway
TTITLE2=Old Kentucky Home
TTITLE3=That Old County Road
TTITLE4=Love Is a Cross and Three Nails
TTITLE5=The Girl I Love
TTITLE6=Going Home
TTITLE7=Lonely Trail of Tears
TTITLE8=Better Move It On Home
TTITLE9=He Moved a Mountain
TTITLE10=Dying to Live Again
TTITLE11=I Was a Farmer
TTITLE12=Trying to Be My Own Man
TTITLE13=Movin? On
TTITLE14=Rae and Jed
EXTD=
EXTT0=
EXTT1=
EXTT2=
EXTT3=
EXTT4=
EXTT5=
EXTT6=
EXTT7=
EXTT8=
EXTT9=
EXTT10=
EXTT11=
EXTT12=
EXTT13=
EXTT14=
PLAYORDER=
